<?xml version="1.0" standalone="no"?>
<!DOCTYPE svg PUBLIC "-//W3C//DTD SVG 20010904//EN"
 "http://www.w3.org/TR/2001/REC-SVG-20010904/DTD/svg10.dtd">
<svg version="1.0" xmlns="http://www.w3.org/2000/svg"
 width="900.000000pt" height="750.000000pt" viewBox="0 0 900.000000 750.000000"
 preserveAspectRatio="xMidYMid meet">

<g transform="translate(0.000000,750.000000) scale(0.100000,-0.100000)"
fill="#000000" stroke="none">
<path d="M4200 5855 c-533 -64 -1000 -325 -1322 -735 l-43 -55 80 74 c292 270
582 439 930 540 406 119 881 106 1285 -34 286 -99 544 -255 798 -484 59 -52
100 -87 92 -76 -330 442 -838 723 -1395 775 -141 13 -293 11 -425 -5z"/>
<path d="M4240 5627 c0 -8 10 -13 23 -13 20 1 22 -3 22 -51 -1 -50 1 -53 24
-53 19 0 22 3 13 12 -18 18 -16 108 2 108 8 0 17 -6 19 -12 3 -8 6 -6 6 5 1
14 -8 17 -54 17 -39 0 -55 -4 -55 -13z"/>
<path d="M4576 5624 c-5 -12 -2 -15 11 -9 31 12 37 10 41 -8 2 -11 -10 -30
-32 -49 -20 -17 -36 -35 -36 -40 0 -4 20 -8 45 -8 35 0 45 4 45 16 0 13 -3 14
-15 4 -29 -24 -37 1 -10 30 37 38 31 74 -11 78 -22 2 -33 -2 -38 -14z"/>
<path d="M4090 5605 c-18 -22 -5 -43 32 -53 41 -10 52 -42 14 -42 -14 0 -26 5
-26 10 0 6 -4 10 -10 10 -19 0 -10 -29 11 -35 29 -10 66 2 74 22 7 21 -27 53
-56 53 -25 0 -32 15 -13 31 13 10 20 10 36 0 21 -13 34 -9 23 8 -9 16 -71 13
-85 -4z"/>
<path d="M4732 5603 c-17 -34 -22 -74 -12 -93 12 -22 52 -27 68 -7 18 21 25
86 12 102 -17 20 -57 19 -68 -2z m50 -43 c-5 -61 -42 -79 -42 -20 0 41 10 61
29 58 12 -3 15 -13 13 -38z"/>
<path d="M3955 5593 c-44 -9 -48 -13 -36 -27 7 -8 13 -35 14 -60 1 -25 7 -46
12 -46 30 0 85 23 85 35 0 19 -8 19 -27 0 -18 -19 -37 -15 -41 7 -2 9 6 19 17
23 30 9 26 23 -4 17 -21 -3 -25 0 -25 18 0 19 4 22 30 18 20 -3 30 0 30 9 0
13 -16 15 -55 6z"/>
<path d="M4886 5565 c11 -27 -6 -85 -23 -85 -25 0 -4 -16 31 -24 25 -6 28 -5
17 8 -9 11 -10 24 -2 53 15 53 14 63 -9 63 -13 0 -18 -5 -14 -15z"/>
<path d="M5002 5525 c-16 -34 -16 -33 10 -37 28 -4 36 -36 12 -45 -10 -4 -19
-2 -22 5 -5 17 -22 15 -22 -3 0 -8 12 -18 27 -21 35 -9 68 27 53 57 -6 10 -17
19 -25 19 -8 0 -15 7 -15 15 0 18 31 20 48 3 9 -9 12 -8 12 4 0 14 -27 27 -56
28 -6 0 -16 -11 -22 -25z"/>
<path d="M4398 5523 c7 -3 16 -2 19 1 4 3 -2 6 -13 5 -11 0 -14 -3 -6 -6z"/>
<path d="M4226 5409 c-112 -12 -255 -42 -366 -79 -99 -32 -297 -125 -340 -160
-14 -12 21 2 78 30 464 230 1074 249 1565 50 65 -27 146 -65 180 -84 44 -26
53 -29 32 -12 -16 14 -77 50 -135 80 -287 149 -656 213 -1014 175z"/>
<path d="M3330 4851 c-19 -6 -8 -10 53 -20 155 -25 261 -102 333 -241 31 -61
33 -63 34 -33 1 80 -70 198 -150 248 -73 46 -196 67 -270 46z"/>
<path d="M5426 4844 c-125 -39 -218 -147 -232 -271 l-5 -48 35 65 c74 140 178
215 336 241 59 10 70 14 50 20 -42 12 -133 8 -184 -7z"/>
<path d="M3763 4828 l-10 -23 78 4 79 3 0 -192 c0 -113 -4 -199 -10 -211 -10
-17 -7 -19 35 -19 42 0 45 2 35 19 -6 12 -10 98 -10 211 l0 192 79 -3 c75 -4
78 -3 71 16 -7 19 -18 20 -172 23 -163 2 -165 2 -175 -20z"/>
<path d="M4220 4831 c6 -12 10 -98 10 -211 0 -113 -4 -199 -10 -211 -10 -17
-7 -19 35 -19 42 0 45 2 35 19 -5 11 -10 58 -10 105 l0 86 130 0 130 0 0 -86
c0 -47 -5 -94 -10 -105 -10 -17 -7 -19 35 -19 42 0 45 2 35 19 -6 12 -10 98
-10 211 0 113 4 199 10 211 10 18 7 19 -37 19 -36 0 -44 -3 -35 -12 8 -8 12
-47 12 -110 l0 -98 -130 0 -130 0 0 98 c0 63 4 102 12 110 9 9 1 12 -35 12
-44 0 -47 -1 -37 -19z"/>
<path d="M4748 4838 c17 -17 17 -419 0 -436 -9 -9 22 -12 140 -12 151 0 152 0
152 23 0 22 -2 22 -101 19 -56 -2 -106 1 -110 5 -5 5 -6 44 -3 87 l7 77 79 -3
c77 -3 78 -3 78 22 0 25 -1 25 -78 22 l-79 -3 -7 77 c-3 44 -2 82 3 87 5 5 48
8 95 6 84 -4 86 -3 86 19 0 22 -2 22 -137 22 -107 0 -134 -3 -125 -12z"/>
<path d="M5670 4674 c-126 -34 -262 -119 -370 -231 -63 -65 -57 -62 63 33 71
56 202 126 282 150 42 13 91 18 165 18 126 -1 164 -13 457 -153 273 -129 351
-154 483 -154 85 -1 117 4 169 23 72 26 167 78 208 115 21 18 9 14 -42 -14
-181 -102 -352 -116 -535 -44 -36 14 -144 64 -240 110 -216 104 -274 129 -347
148 -72 19 -221 18 -293 -1z"/>
<path d="M3140 4636 c-90 -21 -158 -46 -280 -104 -63 -30 -157 -74 -209 -99
-125 -59 -222 -91 -301 -99 -169 -17 -380 71 -560 233 l-65 58 42 -51 c24 -29
73 -76 110 -106 159 -128 286 -178 452 -178 121 0 198 26 473 159 246 119 337
151 440 159 127 8 240 -24 382 -108 l51 -31 -35 30 c-55 47 -149 100 -220 122
-79 26 -205 33 -280 15z"/>
<path d="M1424 4391 c-106 -36 -213 -118 -284 -218 l-34 -48 53 45 c161 138
247 179 381 187 127 8 274 -37 402 -125 72 -48 76 -46 16 10 -119 112 -252
168 -397 167 -54 0 -105 -7 -137 -18z"/>
<path d="M7297 4396 c-27 -8 -73 -26 -103 -41 -61 -30 -204 -140 -204 -157 0
-6 8 -4 18 4 35 30 159 98 226 123 85 32 207 43 289 26 86 -18 185 -73 277
-152 95 -82 89 -60 -12 47 -56 59 -89 83 -156 117 -81 40 -89 42 -186 44 -63
1 -119 -3 -149 -11z"/>
<path d="M1434 4058 c20 -41 21 -57 21 -310 -1 -246 -2 -268 -19 -287 l-19
-21 81 0 82 0 -20 20 c-19 19 -20 33 -20 294 l0 274 23 5 c33 8 105 -8 136
-30 55 -41 64 -111 20 -166 -10 -14 -44 -38 -74 -53 -30 -14 -55 -29 -55 -32
0 -3 25 -39 56 -80 235 -312 509 -462 690 -378 55 26 119 77 136 110 9 18 6
17 -18 -5 -59 -55 -112 -73 -204 -73 -98 1 -146 18 -245 89 -66 47 -193 176
-265 270 -43 55 -44 59 -25 69 77 43 123 131 111 209 -19 114 -63 136 -267
137 l-146 0 21 -42z"/>
<path d="M2194 4079 c-150 -57 -239 -226 -200 -378 39 -153 161 -251 313 -251
182 0 318 123 331 301 17 239 -221 414 -444 328z m196 -49 c98 -50 152 -141
158 -266 5 -100 -20 -167 -80 -219 -185 -157 -458 84 -384 339 19 63 67 124
119 150 46 22 139 21 187 -4z"/>
<path d="M2652 4073 c68 -55 132 -142 192 -262 l38 -74 -4 -122 c-2 -104 -6
-126 -22 -144 l-19 -21 81 0 82 0 -20 20 c-18 18 -20 33 -20 157 l0 136 37 66
c60 108 109 175 163 224 l52 47 -82 0 c-55 0 -79 -3 -75 -11 15 -23 -9 -83
-66 -169 -33 -49 -63 -92 -68 -94 -10 -7 -106 131 -132 189 -11 26 -17 54 -14
65 6 19 1 20 -76 20 l-82 0 35 -27z"/>
<path d="M3864 4075 c23 -35 24 -586 1 -605 -8 -7 -15 -16 -15 -21 0 -5 95 -9
210 -9 l210 0 0 44 0 45 -35 -15 c-23 -9 -72 -14 -150 -14 l-115 0 0 273 c0
225 3 277 15 293 8 10 15 22 15 27 0 4 -34 7 -76 7 l-76 0 16 -25z"/>
<path d="M4544 4078 c14 -19 16 -66 16 -307 0 -251 -2 -287 -17 -303 -15 -17
-13 -18 56 -18 l72 0 -15 22 c-12 17 -16 50 -16 145 l0 123 180 0 180 0 0
-127 c0 -104 -3 -130 -17 -145 -15 -17 -13 -18 56 -18 l72 0 -15 22 c-24 33
-24 573 0 606 l15 22 -65 0 c-61 0 -81 -9 -56 -25 6 -4 10 -63 10 -146 l0
-139 -180 0 -180 0 0 137 c0 113 3 140 17 155 15 17 13 18 -56 18 l-72 0 15
-22z"/>
<path d="M5440 4091 c-90 -29 -174 -103 -212 -186 -33 -74 -32 -190 3 -265 31
-65 96 -132 159 -163 66 -32 215 -32 282 1 63 31 121 92 155 160 24 49 28 69
27 137 -1 96 -23 152 -86 221 -63 69 -126 97 -223 100 -44 2 -91 0 -105 -5z
m165 -60 c87 -40 152 -142 162 -252 15 -158 -82 -284 -217 -283 -249 1 -359
401 -146 529 52 31 141 34 201 6z"/>
<path d="M6504 4078 c14 -19 16 -65 16 -303 0 -238 -2 -284 -16 -303 l-15 -22
210 0 211 0 0 42 c0 33 -3 39 -12 30 -8 -8 -56 -12 -150 -12 l-138 0 0 120 0
120 93 0 c68 0 99 -4 115 -16 22 -15 22 -15 22 41 0 56 0 56 -22 41 -16 -12
-47 -16 -115 -16 l-93 0 0 120 0 120 118 0 c78 0 122 -4 130 -12 9 -9 12 -3
12 30 l0 42 -191 0 -190 0 15 -22z"/>
<path d="M7020 4068 c19 -31 20 -51 20 -298 0 -247 -1 -267 -20 -297 l-20 -33
215 0 215 0 0 52 0 51 -21 -19 c-18 -16 -40 -20 -155 -22 l-134 -4 0 266 c0
210 3 274 14 301 l15 35 -74 0 -75 0 20 -32z"/>
<path d="M3448 4079 c-6 -16 -134 -330 -197 -484 -23 -55 -50 -112 -61 -127
l-21 -28 67 0 c58 0 65 2 54 15 -10 13 -5 35 30 128 24 61 47 118 53 125 6 8
37 12 87 12 l78 0 47 -117 c30 -76 44 -124 40 -140 -5 -22 -3 -23 55 -23 l61
0 -19 28 c-10 15 -47 97 -82 182 -35 85 -85 208 -112 272 -26 65 -48 121 -48
126 0 4 -6 16 -13 26 -11 15 -15 16 -19 5z m46 -241 l25 -68 -59 0 c-33 0 -60
3 -60 7 0 23 54 143 60 136 5 -4 20 -38 34 -75z"/>
<path d="M5881 4059 c-13 -38 -10 -44 18 -29 12 6 57 10 109 8 l87 -3 0 -276
c0 -258 -1 -278 -19 -298 l-19 -21 72 0 72 0 -16 30 c-12 24 -15 77 -15 300
l0 271 98 -3 c53 -2 105 -7 115 -12 17 -8 17 -6 4 25 l-13 34 -241 3 -241 2
-11 -31z"/>
<path d="M3640 3210 c-641 -13 -592 -11 -535 -23 67 -13 2622 -14 2685 -1 37
8 6 11 -170 17 -343 11 -1581 15 -1980 7z"/>
<path d="M2510 2968 c0 -16 65 -168 107 -251 120 -233 325 -481 533 -646 397
-316 930 -482 1424 -443 690 55 1277 414 1626 996 53 88 160 316 160 339 0 7
-29 -42 -63 -108 -316 -607 -873 -1008 -1557 -1122 -145 -24 -465 -24 -610 0
-228 38 -403 94 -605 191 -409 198 -737 519 -952 931 -34 66 -63 117 -63 113z"/>
<path d="M4060 2923 c-32 -11 -68 -39 -122 -94 -43 -43 -87 -80 -98 -84 -26
-8 -26 -22 0 -30 27 -9 25 -37 -6 -75 -57 -67 -135 -80 -178 -29 -33 39 -33
69 0 109 31 36 63 37 80 2 14 -28 7 -62 -11 -62 -8 0 -11 8 -8 20 7 26 -23 38
-44 17 -20 -20 -8 -55 23 -69 59 -27 98 90 45 133 -13 10 -35 19 -50 19 -43 0
-91 -62 -91 -118 0 -23 -6 -32 -30 -42 -17 -7 -35 -21 -40 -31 -14 -25 -12
-35 2 -21 18 18 67 14 125 -10 46 -19 57 -20 92 -9 22 6 56 27 76 46 20 19 38
28 39 22 22 -81 36 -107 76 -149 58 -59 109 -75 172 -53 58 20 78 19 105 -7
19 -18 23 -19 23 -5 0 9 -11 28 -24 43 l-23 28 18 40 c56 123 -32 228 -141
171 -17 -9 -30 -22 -30 -30 0 -20 8 -19 53 4 46 23 73 17 92 -20 48 -91 -42
-224 -138 -203 -50 10 -105 55 -129 104 -35 68 -32 169 5 232 31 53 100 111
154 129 61 20 169 7 243 -29 36 -18 74 -39 84 -47 19 -15 19 -15 -2 -38 -31
-33 -27 -42 8 -17 32 23 38 22 80 -7 l25 -18 -24 34 c-24 33 -24 34 -5 49 10
8 48 28 84 45 88 43 199 50 262 17 66 -33 126 -97 148 -158 24 -64 25 -83 5
-150 -30 -101 -123 -167 -199 -142 -43 14 -81 57 -97 108 -9 31 -8 45 4 74 22
53 43 60 100 36 57 -25 73 -16 33 18 -23 20 -37 24 -74 22 -40 -3 -49 -8 -69
-37 -27 -40 -30 -94 -7 -150 15 -38 15 -41 -5 -62 -12 -13 -21 -31 -21 -41 0
-17 1 -17 20 2 24 24 48 25 110 3 l47 -17 59 30 c68 33 118 97 129 164 l7 40
45 -40 c59 -52 100 -59 167 -31 57 23 88 26 117 11 11 -7 19 -7 19 -1 0 11
-58 61 -71 61 -5 0 -9 10 -9 23 -1 34 -36 104 -58 116 -55 29 -112 -9 -112
-75 0 -35 28 -74 53 -74 48 2 65 82 19 88 -19 3 -23 -1 -22 -20 3 -37 1 -41
-15 -28 -32 26 -5 90 38 90 25 0 57 -49 57 -87 0 -121 -185 -101 -224 25 -5
16 -3 22 7 22 8 0 20 7 27 15 10 12 9 15 -5 15 -9 0 -55 38 -100 84 -69 71
-92 87 -136 100 -29 9 -69 16 -89 16 -57 0 -164 -34 -230 -73 l-61 -37 -35 26
c-48 37 -188 84 -249 83 -27 0 -70 -8 -95 -16z"/>
<path d="M3064 2735 c80 -131 260 -316 398 -409 406 -269 920 -353 1418 -232
198 49 416 149 571 262 117 86 280 257 333 349 17 30 17 30 -1 5 -238 -325
-608 -540 -1058 -617 -138 -24 -442 -24 -580 0 -432 74 -801 282 -1021 574
-67 90 -85 110 -60 68z"/>
<path d="M3090 2532 c0 -15 -70 -78 -82 -74 -5 1 -3 -8 3 -20 l12 -22 8 21
c12 32 28 37 52 16 l22 -18 -19 22 c-17 21 -17 23 -2 39 14 13 19 14 32 3 9
-7 19 -22 23 -33 5 -12 10 -15 14 -9 4 6 -9 28 -28 49 -19 22 -35 33 -35 26z"/>
<path d="M5646 2401 c-21 -21 -33 -41 -28 -45 5 -3 13 4 16 17 6 21 9 19 51
-25 39 -41 46 -44 57 -30 7 10 8 14 3 9 -12 -10 -75 52 -75 74 0 10 8 19 18
21 10 2 13 6 6 10 -6 4 -28 -10 -48 -31z"/>
<path d="M3171 2379 c-18 -21 -40 -39 -48 -39 -13 0 -13 -3 -3 -15 7 -8 17
-15 23 -15 6 0 7 3 3 7 -10 10 65 83 78 76 6 -4 5 1 -3 10 -7 9 -14 17 -15 16
0 0 -16 -18 -35 -40z"/>
<path d="M3270 2348 c0 -8 -16 -33 -35 -55 -31 -37 -35 -53 -13 -53 4 0 8 6 8
13 1 14 35 57 45 57 4 0 4 -27 0 -60 -8 -71 1 -76 40 -20 16 23 35 44 42 49
12 6 12 10 -1 20 -13 11 -16 11 -16 0 0 -8 -12 -27 -26 -44 l-25 -30 4 58 c2
40 0 61 -10 68 -10 9 -13 8 -13 -3z"/>
<path d="M5532 2304 c-13 -9 -22 -26 -22 -41 0 -25 1 -25 49 -19 57 7 72 -5
45 -35 -11 -13 -24 -17 -38 -13 -17 5 -19 4 -8 -7 19 -21 67 9 67 41 0 23 -4
25 -49 25 -34 0 -51 5 -54 14 -6 18 25 42 44 34 8 -3 14 0 14 6 0 16 -22 14
-48 -5z"/>
<path d="M3415 2241 c8 -13 -29 -77 -52 -90 -13 -7 -9 -13 23 -35 42 -28 54
-32 54 -16 0 6 -6 10 -13 10 -7 0 -22 6 -33 14 -18 14 -18 16 -3 31 14 14 21
15 40 5 l24 -11 -22 19 c-19 17 -20 22 -9 37 10 14 16 15 34 6 12 -6 22 -16
22 -22 0 -6 5 -7 12 -3 7 5 5 11 -8 21 -31 24 -77 46 -69 34z"/>
<path d="M5390 2203 c0 -30 24 -132 30 -128 5 3 6 13 3 24 -3 12 4 24 19 35
21 15 24 15 35 0 6 -9 17 -13 23 -9 7 4 -9 22 -41 46 -51 38 -69 46 -69 32z
m54 -54 c-12 -20 -34 -8 -34 18 0 25 1 26 20 8 11 -10 17 -22 14 -26z"/>
<path d="M5266 2139 c-21 -12 -34 -24 -29 -27 18 -12 55 -91 48 -103 -6 -8 -2
-8 14 0 19 11 20 14 6 27 -20 21 -19 31 6 44 11 7 18 14 15 17 -3 3 -12 0 -21
-7 -12 -10 -18 -10 -30 0 -8 7 -15 18 -15 26 0 14 36 30 59 25 7 -1 10 2 6 8
-8 15 -13 14 -59 -10z"/>
<path d="M3630 2103 c0 -10 -11 -37 -24 -60 l-24 -41 28 -12 c44 -18 75 -10
75 20 0 14 6 29 13 33 21 14 13 37 -20 57 -40 24 -48 25 -48 3z m44 -9 c20 -8
21 -44 2 -44 -33 0 -46 11 -35 31 11 21 11 21 33 13z m-1 -63 c12 -12 -3 -41
-22 -41 -29 0 -44 16 -36 39 5 17 12 20 28 15 12 -3 26 -9 30 -13z"/>
<path d="M5150 2090 c-8 -5 -12 -12 -8 -15 8 -9 -11 -65 -23 -65 -8 0 -13 18
-12 48 1 14 -7 15 -27 2 -8 -5 -10 -10 -4 -10 6 0 19 -25 29 -55 19 -54 28
-65 40 -45 3 6 2 10 -3 10 -11 0 -23 36 -14 44 3 3 22 -4 43 -16 21 -12 42
-19 45 -15 4 3 -10 14 -30 23 -39 19 -42 28 -26 70 12 31 10 36 -10 24z"/>
<path d="M3780 2042 c0 -28 -27 -89 -42 -94 -7 -3 10 -12 37 -21 28 -10 53
-13 58 -8 5 5 -3 9 -18 9 -34 0 -49 15 -40 41 5 17 10 19 33 10 l27 -9 -24 19
c-15 12 -22 24 -18 35 8 20 31 21 51 1 17 -18 26 -19 26 -5 0 10 -17 19 -67
34 -19 6 -23 3 -23 -12z"/>
<path d="M4950 1978 c0 -18 -4 -50 -9 -71 -8 -32 -7 -38 6 -33 8 3 16 6 18 6
2 0 1 9 -2 20 -4 14 1 21 20 25 28 8 51 -1 42 -16 -4 -5 1 -9 9 -9 9 0 16 3
16 6 0 10 -83 104 -92 104 -4 0 -8 -15 -8 -32z m40 -38 c-25 -16 -30 -12 -30
22 l0 32 23 -22 c19 -19 20 -24 7 -32z"/>
<path d="M3931 1994 c5 -17 -13 -94 -23 -100 -17 -11 13 -24 54 -24 27 0 40 5
48 19 14 28 13 76 -3 90 -18 14 -79 26 -76 15z m57 -20 c41 -28 22 -94 -28
-94 -34 0 -35 3 -19 66 13 49 15 51 47 28z"/>
<path d="M4825 1985 c-5 -2 -28 -6 -49 -10 -22 -4 -35 -10 -28 -14 13 -8 35
-98 26 -112 -3 -6 5 -7 23 -3 36 9 42 14 15 14 -17 0 -22 6 -22 25 0 15 6 25
14 25 8 0 17 4 20 9 3 4 -6 6 -19 3 -22 -4 -25 -1 -25 23 0 26 2 27 34 22 28
-4 34 -3 29 9 -3 8 -6 14 -7 13 0 0 -5 -2 -11 -4z"/>
<path d="M4191 1946 c-6 -7 -9 -21 -5 -29 3 -9 -1 -24 -10 -32 -12 -13 -13
-21 -6 -36 6 -10 16 -19 23 -18 9 0 9 2 0 6 -18 7 -16 43 2 43 15 0 38 -33 29
-42 -3 -3 4 -8 16 -11 13 -3 20 0 20 8 0 7 3 22 6 32 6 15 4 16 -7 6 -18 -17
-26 -16 -33 3 -4 10 1 25 10 35 14 15 14 21 4 34 -16 19 -34 19 -49 1z m39
-22 c0 -8 -7 -14 -15 -14 -15 0 -21 21 -9 33 10 9 24 -2 24 -19z"/>
<path d="M4590 1930 c7 -12 10 -42 8 -66 -2 -35 0 -44 13 -44 12 0 14 7 11 30
-4 27 -1 30 22 30 19 0 27 -6 32 -25 3 -14 10 -25 15 -25 8 0 6 10 -8 50 -3 8
-6 26 -7 40 -1 23 -6 25 -49 28 -47 3 -48 2 -37 -18z m77 -6 c7 -18 -14 -35
-37 -31 -8 1 -16 12 -18 25 -3 18 1 22 23 22 14 0 28 -7 32 -16z"/>
<path d="M4425 1875 l0 -65 36 0 c19 0 44 6 55 14 16 13 17 18 7 35 -7 11 -10
27 -7 36 10 24 -15 45 -55 45 l-36 0 0 -65z m75 36 c0 -17 -18 -31 -41 -31 -5
0 -9 11 -9 25 0 20 5 25 25 25 18 0 25 -5 25 -19z m8 -63 c-2 -17 -11 -24 -30
-26 -24 -3 -28 0 -28 22 0 22 4 26 31 26 26 0 30 -3 27 -22z"/>
<path d="M4846 1875 c-3 -9 0 -15 9 -15 16 0 20 16 6 24 -5 3 -11 -1 -15 -9z"/>
<path d="M7577 191 c-7 -27 15 -56 37 -48 26 10 17 61 -10 65 -15 2 -23 -3
-27 -17z m38 -14 c0 -26 -20 -25 -23 2 -3 16 1 22 10 19 7 -3 13 -12 13 -21z"/>
<path d="M7650 191 c0 -11 5 -23 10 -26 6 -4 8 -11 5 -16 -4 -5 -2 -9 3 -9 13
0 35 47 28 59 -12 19 -46 13 -46 -8z m30 -1 c0 -5 -4 -10 -10 -10 -5 0 -10 5
-10 10 0 6 5 10 10 10 6 0 10 -4 10 -10z"/>
<path d="M7725 187 c-19 -29 -13 -47 15 -47 27 0 33 16 17 46 l-14 27 -18 -26z
m25 -27 c0 -5 -4 -10 -10 -10 -5 0 -10 5 -10 10 0 6 5 10 10 10 6 0 10 -4 10
-10z"/>
<path d="M7790 196 c0 -8 7 -17 16 -20 8 -3 12 -11 9 -17 -4 -6 -13 -8 -21 -5
-8 3 -14 1 -14 -4 0 -6 9 -10 20 -10 28 0 38 29 16 46 -16 12 -16 13 1 17 14
4 14 5 -4 6 -14 1 -23 -5 -23 -13z"/>
<path d="M7847 191 c-7 -27 15 -56 37 -48 26 10 17 61 -10 65 -15 2 -23 -3
-27 -17z m38 -14 c0 -26 -20 -25 -23 2 -3 16 1 22 10 19 7 -3 13 -12 13 -21z"/>
<path d="M7927 181 c-17 -28 -16 -29 8 -34 31 -5 35 0 28 36 -7 34 -14 34 -36
-2z"/>
<path d="M7992 178 c2 -25 8 -33 23 -33 16 0 20 7 20 30 0 24 -5 31 -23 33
-21 3 -23 0 -20 -30z m28 -18 c0 -5 -2 -10 -4 -10 -3 0 -8 5 -11 10 -3 6 -1
10 4 10 6 0 11 -4 11 -10z"/>
<path d="M8054 198 c-5 -8 -2 -9 9 -5 22 8 22 -11 0 -35 -15 -17 -15 -18 13
-17 16 0 23 3 17 6 -10 3 -10 10 -2 24 5 11 7 24 4 29 -8 14 -32 13 -41 -2z"/>
<path d="M8118 187 c-6 -32 1 -47 22 -47 21 0 28 15 22 47 -3 14 -12 23 -22
23 -10 0 -19 -9 -22 -23z m32 -27 c0 -5 -4 -10 -10 -10 -5 0 -10 5 -10 10 0 6
5 10 10 10 6 0 10 -4 10 -10z"/>
<path d="M8190 189 c-14 -25 -6 -49 15 -49 20 0 30 27 16 44 -6 7 -8 16 -4 19
3 4 1 7 -5 7 -6 0 -16 -9 -22 -21z m30 -23 c0 -11 -19 -15 -25 -6 -3 5 1 10 9
10 9 0 16 -2 16 -4z"/>
<path d="M8354 196 c-10 -26 1 -51 22 -54 24 -3 38 20 29 49 -7 22 -43 25 -51
5z m36 -21 c0 -14 -4 -25 -10 -25 -5 0 -10 11 -10 25 0 14 5 25 10 25 6 0 10
-11 10 -25z"/>
<path d="M8439 201 c7 -5 10 -14 7 -20 -4 -6 -2 -11 4 -11 6 0 9 -4 5 -10 -3
-5 -13 -6 -23 -3 -13 5 -15 3 -5 -7 19 -20 43 -4 43 30 0 25 -4 30 -22 30 -17
0 -19 -3 -9 -9z"/>
<path d="M8490 200 c0 -5 6 -7 13 -5 7 3 13 -4 13 -21 2 -18 -2 -24 -12 -20
-8 3 -14 1 -14 -4 0 -6 9 -10 20 -10 16 0 20 7 20 35 0 28 -4 35 -20 35 -11 0
-20 -4 -20 -10z"/>
<path d="M8550 200 c0 -5 6 -7 13 -5 7 3 13 -4 13 -21 2 -18 -2 -24 -12 -20
-8 3 -14 1 -14 -4 0 -12 37 -13 43 -2 3 4 3 19 0 35 -4 18 -12 27 -24 27 -11
0 -19 -4 -19 -10z"/>
<path d="M8620 196 c0 -8 7 -17 16 -20 8 -3 13 -10 9 -15 -3 -6 -12 -8 -20 -4
-8 3 -15 0 -15 -6 0 -17 40 -13 46 4 4 8 1 22 -5 29 -9 11 -9 15 1 19 7 3 3 6
-9 6 -13 1 -23 -5 -23 -13z"/>
<path d="M8687 196 c-3 -8 1 -17 9 -20 23 -9 17 -28 -7 -21 -15 5 -19 4 -15
-4 11 -17 46 -13 53 5 4 10 -1 22 -11 29 -13 10 -14 14 -4 18 9 4 8 6 -3 6 -9
1 -19 -5 -22 -13z"/>
<path d="M8750 196 c0 -8 7 -17 16 -20 8 -3 12 -11 9 -17 -4 -6 -13 -8 -21 -5
-8 3 -14 1 -14 -4 0 -16 40 -11 46 5 4 8 1 22 -5 29 -9 11 -9 15 1 19 7 3 3 6
-9 6 -13 1 -23 -5 -23 -13z"/>
<path d="M8808 175 c2 -19 8 -35 13 -35 5 0 9 16 9 35 0 22 -5 35 -13 35 -9 0
-12 -11 -9 -35z"/>
<path d="M8850 196 c0 -8 7 -17 16 -20 8 -3 13 -10 9 -15 -3 -6 -12 -8 -20 -4
-8 3 -15 0 -15 -6 0 -17 40 -13 46 4 4 8 1 22 -5 29 -9 11 -9 15 1 19 7 3 3 6
-9 6 -13 1 -23 -5 -23 -13z"/>
<path d="M8922 198 c-20 -20 -15 -58 8 -58 25 0 37 25 21 44 -6 7 -8 16 -4 19
3 4 2 7 -3 7 -6 0 -15 -5 -22 -12z m18 -38 c0 -5 -2 -10 -4 -10 -3 0 -8 5 -11
10 -3 6 -1 10 4 10 6 0 11 -4 11 -10z"/>
</g>
</svg>
